# xmcd
#
# Track frame offsets: 
#        150
#        21246
#        39200
#        55458
#        71783
#        88218
#        110447
#        132634
#        153553
#        171205
#
# Disc length: 2652 seconds
#
# Revision: 1
# Processed by: cddbd v1.5.2PL0 Copyright (c) Steve Scherf et al.
# Submitted via: ExactAudioCopy v0.99pb5
#
DISCID=8e0a5a0a
DTITLE=Dazz Band - Keep It Live
DYEAR=1982
DGENRE=Funk
TTITLE0=Let It Whip
TTITLE1=Gamble With My Love
TTITLE2=I'll Keep On Lovin' You
TTITLE3=Just Can't Wait' Till The Night
TTITLE4=Shake What You Got
TTITLE5=Keep It Live (On The K.I.L.)
TTITLE6=Just Believe In Love
TTITLE7=Can We Dance
TTITLE8=Let Me Love You Until
TTITLE9=Let It Whip (12'' Version) (Bonus Track)
EXTD=
EXTT0=
EXTT1=
EXTT2=
EXTT3=
EXTT4=
EXTT5=
EXTT6=
EXTT7=
EXTT8=
EXTT9=
PLAYORDER=
